<svg xmlns="http://www.w3.org/2000/svg" width="15.998" height="15.998" viewBox="0 0 15.998 15.998">
  <g id="_9054506_bx_current_location_icon" data-name="9054506_bx_current_location_icon" transform="translate(-2 -2)">
    <circle id="Ellipse_174" data-name="Ellipse 174" cx="3" cy="3" r="3" transform="translate(7 6.998)" fill="#00b795"/>
    <path id="Path_11806" data-name="Path 11806" d="M10.8,3.655V2H9.2V3.655A6.407,6.407,0,0,0,3.655,9.2H2v1.6H3.655A6.406,6.406,0,0,0,9.2,16.343V18h1.6V16.343A6.4,6.4,0,0,0,16.343,10.8H18V9.2H16.343A6.406,6.406,0,0,0,10.8,3.655ZM10,14.8A4.8,4.8,0,1,1,14.8,10,4.8,4.8,0,0,1,10,14.8Z" fill="#00b795"/>
  </g>
</svg>
