<svg xmlns="http://www.w3.org/2000/svg" width="13.652" height="18.928" viewBox="0 0 13.652 18.928">
  <g id="Group_7330" data-name="Group 7330" transform="translate(-329.575 -3584.277)">
    <g id="Group_7329" data-name="Group 7329" transform="translate(150.704 -1049.5)">
      <path id="Path_11814" data-name="Path 11814" d="M78.113,84.729a2.242,2.242,0,0,1-2.227-.944l-.154-.226L73.68,87.845l1.978-.078,1.18,1.59L79.13,84.57l-.026-.011Z" transform="translate(105.845 4563.35)" fill="#00b795"/>
      <path id="Path_11815" data-name="Path 11815" d="M93.686,84.084l-.742.679a2.242,2.242,0,0,1-1.513.586H91.37l2.026,4.23,1.179-1.59,1.978.078-1.98-4.134Z" transform="translate(95.314 4563.127)" fill="#00b795"/>
      <path id="Path_11816" data-name="Path 11816" d="M85.255,57.825l.33-1.25a1.259,1.259,0,0,0-.419-1.3l-1-.819-.4-1.23a1.259,1.259,0,0,0-1.053-.863l-1.284-.149-1-.819a1.259,1.259,0,0,0-1.353-.157l-1.161.569-1.284-.149a1.259,1.259,0,0,0-1.223.6l-.669,1.106-1.161.569a1.259,1.259,0,0,0-.7,1.165l.035,1.292L72.243,57.5a1.259,1.259,0,0,0,.037,1.361l.728,1.068.035,1.292a1.259,1.259,0,0,0,.767,1.125l1.19.5.728,1.068a1.259,1.259,0,0,0,1.254.531l1.274-.219,1.19.5a1.259,1.259,0,0,0,1.342-.231l.953-.873,1.274-.219a1.259,1.259,0,0,0,1-.92l.33-1.25.953-.873a1.259,1.259,0,0,0,.348-1.317Z" transform="translate(106.809 4582.664)" fill="#00b795"/>
    </g>
    <g id="Ellipse_177" data-name="Ellipse 177" transform="translate(332 3587)" fill="#00b795" stroke="#f8f8f8" stroke-width="1">
      <circle cx="4.5" cy="4.5" r="4.5" stroke="none"/>
      <circle cx="4.5" cy="4.5" r="4" fill="none"/>
    </g>
  </g>
</svg>
