<svg id="_351988_membership_wallet_icon" data-name="351988_membership_wallet_icon" xmlns="http://www.w3.org/2000/svg" width="18.646" height="18.646" viewBox="0 0 18.646 18.646">
  <path id="Path_11807" data-name="Path 11807" d="M0,0H18.646V18.646H0Z" fill="none"/>
  <path id="Path_11808" data-name="Path 11808" d="M17.984,4H5.554A1.553,1.553,0,0,0,4,5.554V14.1a1.553,1.553,0,0,0,1.554,1.554H8.661v3.885l3.108-1.554,3.108,1.554V15.654h3.108A1.553,1.553,0,0,0,19.538,14.1V5.554A1.553,1.553,0,0,0,17.984,4Zm0,10.1H5.554V12.546H17.984Zm0-3.885H5.554V5.554H17.984Z" transform="translate(-2.446 -2.446)" fill="#00b795"/>
</svg>
